<?xml version="1.0" encoding="utf-8"?>
<svg version="1.1" id="icon-h" xmlns="http://www.w3.org/2000/svg" xmlns:xlink="http://www.w3.org/1999/xlink" x="0px" y="0px"
	 viewBox="0 0 1024 1024" style="enable-background:new 0 0 1024 1024;" xml:space="preserve">
<style type="text/css">
	.st0{display:none;fill:none;stroke:#000000;stroke-miterlimit:10;}
	.st1{display:none;fill:none;stroke:#000000;stroke-width:0.7919;stroke-miterlimit:10;}
	.st2{display:none;fill:none;stroke:#000000;stroke-width:0.8041;stroke-miterlimit:10;}
	.st3{fill:#FFFFFF;}
</style>
<circle class="st0" cx="242.4" cy="547.2" r="26.1"/>
<circle class="st0" cx="346.1" cy="607.8" r="26.1"/>
<circle class="st0" cx="451.2" cy="667.6" r="26.1"/>
<line class="st0" x1="340.3" y1="370.7" x2="768.9" y2="618.1"/>
<line class="st0" x1="287.2" y1="402.7" x2="715.8" y2="650.2"/>
<line class="st0" x1="139.1" y1="487.5" x2="567.6" y2="734.9"/>
<line class="st0" x1="461.1" y1="288.7" x2="889.7" y2="536.1"/>
<line class="st0" x1="574" y1="626.8" x2="308" y2="780.4"/>
<line class="st0" x1="547.9" y1="581.6" x2="281.9" y2="735.2"/>
<line class="st0" x1="521.8" y1="536.4" x2="255.8" y2="690"/>
<line class="st0" x1="495.8" y1="491.3" x2="229.7" y2="644.8"/>
<line class="st0" x1="469.7" y1="446.1" x2="203.7" y2="599.7"/>
<line class="st0" x1="443.6" y1="400.9" x2="177.6" y2="554.5"/>
<line class="st0" x1="824.3" y1="482.3" x2="359.3" y2="750.8"/>
<line class="st0" x1="798.2" y1="437.1" x2="333.2" y2="705.6"/>
<line class="st0" x1="772.1" y1="391.9" x2="307.1" y2="660.4"/>
<line class="st0" x1="746" y1="346.8" x2="281" y2="615.2"/>
<line class="st0" x1="720" y1="301.6" x2="254.9" y2="570.1"/>
<line class="st0" x1="693.9" y1="256.4" x2="228.9" y2="524.9"/>
<line class="st1" x1="758.3" y1="442.1" x2="758.3" y2="539.3"/>
<line class="st2" x1="601.7" y1="346.9" x2="601.7" y2="447.1"/>
<line class="st2" x1="416.3" y1="450.1" x2="416.3" y2="550.3"/>
<rect width="1024" height="1024"/>
<path id="h" class="st3" d="M411.5,450.9h201.2V244.3h138.9v535.4H612.5V560.3H411.3v219.4H272.4V244.3h139.2V450.9z"/>
</svg>
