<svg version="1.1" id="impossibleh" xmlns="http://www.w3.org/2000/svg" x="0" y="0" viewBox="0 0 203.6 38.6" xml:space="preserve"><style>.st0{fill:none;stroke:#fff;stroke-width:1.71}</style><path id="edge1" class="st0" d="M9.2 15.3h79.5l8.3 8.1"/><path id="edge2" class="st0" d="M3.3 9h85.4l14.5 14.4h-94"/><path id="edge5" class="st0" d="M88.6 15.3V8.9"/><path id="oval3" class="st0" d="M11.6 19.4c0-2.2-1.1-4-2.4-4s-2.4 1.8-2.4 4 1.1 4.1 2.4 4.1 2.4-1.9 2.4-4.1z"/><path id="oval2" class="st0" d="M18.3 33.5c0-2.3-1.1-4.2-2.5-4.2s-2.5 1.9-2.5 4.2 1.1 4.2 2.5 4.2 2.5-1.9 2.5-4.2z"/><path id="oval1" class="st0" d="M5.7 4.9c0-2.2-1.1-4-2.4-4S.9 2.7.9 4.9 1.9 9 3.3 9s2.4-1.9 2.4-4.1z"/><path id="edge2-2" class="st0" d="M202.7 29.3H15.8"/><path id="edge4" class="st0" d="M180.4 9.3h-78.6l15.1 14h79l6.8 6.1v8.4H15.8"/><path id="edge4-2" class="st0" d="M3.3.9h168.6l8.6 8.1v6.3h-71.9"/></svg>