<svg xmlns="http://www.w3.org/2000/svg" id="the-magic-circle-logo" data-name="the-magic-circle-logo" viewBox="0 0 385.51 385.51" width="150"><defs><style>.cls-1{fill:#fff}</style></defs><circle cx="192.76" cy="192.76" r="147.4" class="cls-1" transform="rotate(-8.1 200.522 196.168)"/><circle cx="192.76" cy="192.76" r="141.73" transform="rotate(-8.1 200.522 196.168)" fill="#24408e"/><path class="cls-1" d="M115.85 162.6v-.01.01zM237.17 192.76a44.42 44.42 0 10-44.42 44.42 44.47 44.47 0 0044.42-44.42z"/><path class="cls-1" transform="rotate(-15.23 78.566 223.832)" d="M70.91 222.52h15.4v2.74h-15.4z"/><path class="cls-1" d="M91.48 237.44l-10.71 4.27-.02-.04 8.07-10.92-1.35-3.37-14.3 5.7 1.01 2.54 11.05-4.4.02.04-8.35 11.19 1.29 3.24 14.31-5.7-1.02-2.55zM97 248.09l-2.79-4.7L81 251.25l2.78 4.69c2 3.46 6.32 6.14 11 3.39 4.89-2.95 4.22-7.78 2.22-11.24zm-3.79 8.71c-3.57 2.12-6.18 0-7.62-2.45l-1.17-2 9.15-5.35 1.17 2c1.44 2.34 2.26 5.55-1.55 7.8zM108.19 263.41c-3-3.63-7.68-4.32-11.46-1.15A8.28 8.28 0 00107.36 275c3.78-3.22 3.92-7.9.83-11.59zm-2.75 9.25c-2.51 2.11-5.73 2-7.75-.42s-1.56-5.59 1-7.7 5.67-2 7.71.44 1.48 5.64-.96 7.68zM112.4 287.1c-2.39-2.09-2.4-5.2-.19-7.72a5.31 5.31 0 017.72-.73 4.38 4.38 0 011.6 3.5l2.66.14a7.24 7.24 0 00-2.66-5.46c-3.58-3.12-8.35-3.16-11.6.56a7.84 7.84 0 00.83 11.55 7.28 7.28 0 006.27 1.89l-.64-2.61a4.5 4.5 0 01-3.99-1.12z"/><path class="cls-1" transform="rotate(-54.82 124.69 289.498)" d="M116.98 288.13h15.41v2.74h-15.41z"/><path class="cls-1" d="M134.02 286.54l-7.73 13.33 8.04 4.66 1.22-2.1-5.66-3.29 6.5-11.22-2.37-1.38z"/><path class="cls-1" transform="rotate(-64.96 142.815 300.005)" d="M135.11 298.64h15.41v2.74h-15.41z"/><path d="M156.4 296.81c-2.63-.93-5.78-.58-6.83 2.37-1 2.71.64 4.25 2.2 5.43s3 2.2 2.45 3.71-2.18 1.65-3.39 1.22a4.39 4.39 0 01-2.61-2.73l-2.46 1.07a7 7 0 004.24 3.84c2.85 1 5.83.37 6.94-2.75 1-2.85-1.07-4.52-2.73-5.75-1.46-1.1-2.45-1.89-2-3.22s2.08-1.5 3.27-1.08a3.82 3.82 0 012.22 2.2l2.34-1.25a6.77 6.77 0 00-3.64-3.06zM175.69 302l-5-.77-2.37 15.23 2.71.42 1-6.3 2.09.32c3.23.51 6.1-.24 6.62-3.59.5-3.17-1.56-4.74-5.05-5.31zm2.31 4.9c-.29 1.81-2 2-3.73 1.71l-1.89-.29.68-4.37 2 .31c1.67.26 3.24.84 2.94 2.64zM195.52 307.87c.08-3.26-2.67-4.49-5.57-4.56l-5.34-.14-.41 15.39 2.74.07.17-6.52 2 .05 3.4 6.62 3.31.09-3.94-6.94a4.09 4.09 0 003.64-4.06zm-8.35 2l.12-4.33 2.47.07c1.42 0 3.06.49 3 2.17-.05 1.87-1.82 2.19-3.37 2.15z" class="cls-1"/><path class="cls-1" transform="rotate(-4.1 201.468 310.859)" d="M199.92 303.03h2.74v15.41h-2.74z"/><path class="cls-1" d="M213.99 313.36l-.08.02-6.22-10.96-3.03.53 8.65 14.13 2.34-.4 3.44-16.25-2.91.51-2.19 12.42zM225.12 298.54l-1.73 16.71 2.92-.92.27-3.79 6.37-2 2.43 2.93 3-.95-11-12.68zm1.64 9.48l.4-6.71 4.16 5.26zM245.24 293.04l-.99-2.17-11.08 5.05.99 2.18 4.29-1.96 5.4 11.83 2.5-1.14-5.4-11.83 4.29-1.96zM249.53 287.7l2.33 16.64 2.61-1.6-.65-3.74 5.7-3.48 3.06 2.25 2.68-1.63-13.71-9.68zm7.94 6.31l-4.08 2.5-1.21-6.6zM274.78 285.18l-8.7-9.61-2.03 1.84 10.33 11.42 6.89-6.23-1.64-1.81-4.85 4.39zM288.41 262.82c-3.76-3.19-8.4-2.53-11.51 1.13s-3 8.3.81 11.49a8.27 8.27 0 0010.7-12.62zm-1 10c-2 2.39-5.25 2.48-7.75.36s-2.93-5.25-.88-7.67 5.3-2.46 7.73-.41 2.91 5.3.88 7.71zM302.11 251.08a6.8 6.8 0 00-3.46-5.22c-4-2.38-8.56-1-11 3s-1.43 8.74 2.6 11.13c4.31 2.54 8.48 1.18 11-3.05l4.73-8-1.98-1.14zm-2.94 4.63c-1.57 2.66-4.56 3.35-7.39 1.68a5.23 5.23 0 01-2-7.29 5.11 5.11 0 017.33-1.71c2.81 1.68 3.61 4.7 2.06 7.32zM307.06 231l-9.06-3.55-1 2.55 9 3.53c1.66.65 3.14 2.12 2.18 4.57s-3.05 2.52-4.71 1.87l-9-3.52-1 2.55 9.08 3.57a6.21 6.21 0 004.51-11.57z"/><path class="cls-1" transform="rotate(-74.69 306.89 224.09)" d="M305.51 216.39h2.74v15.4h-2.74z"/><path class="cls-1" d="M87.92 187.97l-22.5-.51.18-8.17-4.14-.09-.48 21.07 4.14.1.19-8.17 22.5.51.11-4.74zM89.5 173.07l-11.46-2.89 3.05-12.07L92.55 161l1.15-4.6-25.82-6.52-1.16 4.6 10.43 2.63-3.05 12.08-10.43-2.64-1.16 4.6 25.83 6.52 1.16-4.6zM104.36 135.43l-3.74-1.96-6.32 12.03-6.66-3.51 5.69-10.82-3.53-1.86-5.69 10.83-6-3.15 6-11.43-3.66-1.93-8.21 15.63 23.59 12.4 8.53-16.23zM116.03 120.55l-14.15-16.06.05-.05 20.15 10.78 2.48-2.18-8.09-21.42.06-.05 14.16 16.07 3.53-3.11-17.62-19.99-5.59 4.93 7.38 18.72-.09.08-17.71-9.63-5.56 4.91 17.62 19.98 3.38-2.98zM140.88 101.19l-.4-6.54 10.52-4.9 4.84 4.48 4.91-2.3L139 72.64l-3.71 1.74.77 29.06zm6.85-14.42l-7.5 3.51-.8-11.59zM174.94 90.05a22.42 22.42 0 009.49-3.9l-2.55-13.57-10 1.89.72 3.84 5.52-1 1.25 6.66a13.86 13.86 0 01-5 1.9c-5.77 1.09-10.09-2.31-11.14-7.89-1-5.41 1.78-10.26 7.29-11.3a9.47 9.47 0 017.2 1.4l2.49-4.08c-2.48-1.56-6.43-2.19-10.57-1.41-8.07 1.52-13.21 8-11.63 16.36 1.55 8.14 8.5 12.69 16.93 11.1zM214.09 90.69a12.6 12.6 0 0011-2.76l-3.27-3.31a7.79 7.79 0 01-6.91 1.89c-5.41-1-8.18-5.56-7.15-11.26 1-5.41 5.39-8.93 10.8-8a7.53 7.53 0 015.44 3.82l4.07-2.18c-1.59-3.11-5.4-5.1-8.8-5.71-8.08-1.45-15.18 2.73-16.69 11.14-1.47 8.19 3.32 14.9 11.51 16.37zM248.14 104.41a12.58 12.58 0 0011.25 1.24l-1.91-4.24a7.8 7.8 0 01-7.14-.64c-4.73-2.8-5.73-8.06-2.78-13 2.8-4.73 8.17-6.5 12.9-3.7a7.54 7.54 0 013.82 5.45l4.57-.62c-.4-3.47-3.28-6.66-6.26-8.43-7.06-4.17-15.18-2.72-19.53 4.63-4.24 7.11-2.06 15.08 5.08 19.31z"/><path class="cls-1" transform="rotate(-49.19 269.973 103.255)" d="M256.67 100.88h26.64v4.74h-26.64z"/><path d="M271 122.74l8.7-7.19 2.2 2.67-4.76 11.94 3.65 4.41 4.56-13c3 2.34 6.47 2.56 9.43.11 4.34-3.59 2.81-8.57-.38-12.43l-5.9-7.13-20.52 17zm17.45-14.43l2.73 3.3c1.56 1.88 2.83 4.54.6 6.39-2.49 2.06-4.93.12-6.63-1.94l-2.47-3zM287.48 149.13a12.59 12.59 0 008.76 7.18l.71-4.59a7.82 7.82 0 01-5.64-4.44c-2.43-4.92-.39-9.88 4.81-12.45 4.92-2.44 10.39-1 12.82 3.95a7.57 7.57 0 01.23 6.65l4.16 2c1.57-3.12.89-7.37-.64-10.47-3.64-7.36-11.23-10.58-18.89-6.79-7.46 3.65-10 11.51-6.32 18.96zM296.86 176.62l4.09-1.02-2.71-10.99 21.77-5.39-1.14-4.6-25.87 6.39 3.86 15.61zM323.95 179.62l-26.64.92.63 18.32 4.21-.14-.46-13.58 7.52-.26.42 12.22 3.99-.13-.42-12.23 6.77-.23.45 12.9 4.13-.14-.6-17.65zM121.94 187.09a2.36 2.36 0 001.44.59 2 2 0 001.5-.75 3.49 3.49 0 00.91-2.26 2.82 2.82 0 00-1-2.12 2.53 2.53 0 00-1.64-.62 2.13 2.13 0 00-1.79 1 3 3 0 00.58 4.16z" class="cls-1"/><path d="M96.35 192.76a97.16 97.16 0 002.86 23.34l44.62-12a50.13 50.13 0 010-22.77l-44.62-12a97 97 0 00-2.86 23.43zm8.26-.23a4.4 4.4 0 011.51-1 9.08 9.08 0 012.2-.63 24.31 24.31 0 012.6-.27c1.78-.1 3.79-.21 5.74-.36a23.36 23.36 0 003-.45 7.5 7.5 0 01-2.1-2.8 5.89 5.89 0 01-.32-3.67 5.56 5.56 0 012.66-3.93 6.34 6.34 0 013.49-1 6.12 6.12 0 015.42 3.16 5.36 5.36 0 01.12 5 9.5 9.5 0 01-1.14 2.11 6.35 6.35 0 01-.64.78 13.32 13.32 0 012.57.7 8.44 8.44 0 012.8 1.75 7.06 7.06 0 012 3.68l.09.39v.19c0 .14.08.77.1 1.08s0 .68 0 1.27a1 1 0 01-.23.79.85.85 0 01-.76.29l-1.9.12H131.14a.75.75 0 01-.53-.64v-.5a7.3 7.3 0 00-.14-2.3 3.84 3.84 0 00-1.92-2.57 6.79 6.79 0 00-2.91-.87 14.89 14.89 0 00-4.32.4 31.43 31.43 0 01-3.64.57l-1.08.11h-.14l-1.33.14c-.81.08-1.62.15-2.45.19a16.24 16.24 0 00-3.73.61 2.88 2.88 0 00-.53.19 2.28 2.28 0 00.47.46 10.68 10.68 0 001.74 1.14 14.85 14.85 0 003.77 1.34 32 32 0 004 .61 20.24 20.24 0 002.14.1c.55 0 1.14 0 1.87-.05h.34a.76.76 0 01.76.75V202.87a.72.72 0 01-.72.67h-.43c-.52 0-1.06-.05-1.65-.05-1.25 0-2.46.08-3.47.17q-1.22.1-2.43.24h-.22a13.15 13.15 0 00-4.54 1.38 5.09 5.09 0 00-1 .59 2 2 0 00-.82 2.21v.26l.06.39-.12.19a.78.78 0 01-.71.38h-2.4a.82.82 0 01-.87-.76 4.85 4.85 0 011.38-5 8 8 0 011.89-1.32 15.94 15.94 0 013.83-1.34l.3-.06c-.45-.11-.86-.23-1.27-.36a14.08 14.08 0 01-3.21-1.45 9.14 9.14 0 01-2.32-2.05 5.79 5.79 0 01-.82-1.36 2.83 2.83 0 01.64-3.07zM125.79 123.44l32.65 32.64a50.37 50.37 0 0119.71-11.39l-12-44.6a96.65 96.65 0 00-40.36 23.35zm40.62 1.46l-.33.19-4.47 2.58a19 19 0 003.19 3.43 26.93 26.93 0 005.16 3.67c.32.18.63.34 1 .5l.11.06.78.41.2.11.08.21a.7.7 0 01-.29.87l-.66.38-1.3.76a1.31 1.31 0 01-1.2.08l-.1-.05c-.19-.08-.38-.16-.57-.26a31.92 31.92 0 01-6.25-4.3 19.68 19.68 0 01-3.48-4l-2.94 1.69c.09.18.17.35.25.53a20.57 20.57 0 011.65 5.88 33.93 33.93 0 01.35 5.54 8.09 8.09 0 01-.09 1.41 1.27 1.27 0 01-.59 1l-1.31.75-1 .6-.28-.13a.76.76 0 01-.45-.72v-.67-1a27.19 27.19 0 00-1.46-10c-.12-.34-.27-.68-.41-1l-.07-.14-4.52 2.61a1.38 1.38 0 01-.66.26c-.44 0-.65-.31-.84-.6l-1.2-1.75a1.22 1.22 0 01-.26-.56v-.2l.1-.18a1.36 1.36 0 01.62-.53h.05l4.42-2.55-.09-.09a17.9 17.9 0 00-2.94-2.55 38.9 38.9 0 00-7.76-4.17h-.12a1.82 1.82 0 01-.64-.32l-.43-.35.33-.45a.8.8 0 01.29-.3l1.24-.73 1.08-.64a1.28 1.28 0 011.19-.1 28.28 28.28 0 019.29 5.64 19.44 19.44 0 011.95 2.14l3.23-1.86a20.73 20.73 0 01-1.13-4 26.55 26.55 0 01-.23-7.34c0-.44.11-.89.17-1.33v-.21l.09-.64a1.34 1.34 0 01.71-1c.53-.28 1.06-.58 1.58-.87l.79-.45a.67.67 0 01.33-.08h.51l.15.42a1.52 1.52 0 010 .75v.11a38.93 38.93 0 00-.38 8.07 20 20 0 00.74 4.45 2.58 2.58 0 00.08.26l4.42-2.54c.14-.09.29-.17.44-.25a.91.91 0 01.34-.09.76.76 0 01.68.4s0 .07.06.1l.53 1.12.54 1.14a.8.8 0 01-.27.88zM100.09 166.2l44.6 12a50.37 50.37 0 0111.39-19.71l-32.64-32.69a96.55 96.55 0 00-23.35 40.4zm31.46-20.44l.13-.65.65.11c.64.11 1.27.21 1.9.33 1.39.26 2.82.55 4.26.86l.24.06 1.15.26a1 1 0 01.8.81l.15.78.24 1.27.11.57-.54.2a1.46 1.46 0 01-.88 0h-.11c-1.44-.3-2.73-.55-4-.78.39 2.1.82 4.24 1.28 6.35v.14c0 .09 0 .17.05.25a.86.86 0 01-.12.74.76.76 0 01-.58.3h-.29c-1.46-.19-2.83-.35-4.18-.49.41 1.8.84 3.58 1.29 5.31l.12.47a.78.78 0 01-.73 1h-.54c-1.43-.07-2.88-.12-4.32-.16v.09c0 .15.09.3.13.45s.16.57.25.85l.28 1c.1.3.19.6.28.91s.29.88.44 1.32l.68 2-.76.16a6.38 6.38 0 01-1 .11h-2.03l-.18-.36c-.23-.46-2.64-8.84-2.69-9.33l-.06-.74h.73c1.27 0 2.61 0 3.77.07h1.26c-.43-1.87-.85-3.81-1.23-5.75v-.11a1 1 0 01.11-.91.82.82 0 01.63-.31 2.86 2.86 0 01.47 0c1.51.14 2.8.28 4 .4-.42-2.19-.82-4.45-1.18-6.71v-.11a1.88 1.88 0 01.02-.76zm-1.14-6.7l.17.26a1 1 0 01.14.34l.3 2.28a.8.8 0 01-.18.67.79.79 0 01-.57.28l-.72-.08c-1.52-.24-2.87-.43-4.11-.59.34 2.8.73 5.49 1.07 7.77l.07.51-.47.21a1.53 1.53 0 01-.84.1h-.1c-1.52-.11-2.86-.19-4.09-.26.1.69.2 1.36.31 2 .23 1.4.47 2.76.71 4.07 0 .12.05.24.07.37l.1.56-.28.26a1.23 1.23 0 01-.89.26h-4.74c.44 2.08.92 4.19 1.44 6.29v.12a.94.94 0 01-.07.88c-.24.33-.57.35-1.08.38l-.84.07-.85.06h-.09a.91.91 0 01-.93-.68c0-.09 0-.18-.07-.26v-.16c-.67-2.86-1.31-5.87-1.89-9a4.44 4.44 0 01-.07-.49.8.8 0 01.71-.87h.51c1.56 0 3.15-.07 4.71-.09-.35-2.23-.66-4.31-.91-6.21v-.26-.32a.94.94 0 01.18-.74.89.89 0 01.63-.29h.56l4.07.21c-.32-2.48-.62-5-.87-7.49v-.39l-.07-1.07h1.02c2.66.34 5.27.72 7.77 1.15zM250.39 162.16h.06l9.54-5.46 6.38-3.68.11-.06c-.82-1.29-1.62-2.65-2.45-4.14h-.06l-7.79 4.79-7.81 4.78-.1.06-.08.05.81 1.35c.45.72.93 1.51 1.39 2.31z" class="cls-1"/><path d="M285.42 166.2a96.55 96.55 0 00-23.35-40.4l-32.64 32.64a50.52 50.52 0 0111.4 19.71zm-45.08-11.91a.76.76 0 01.2-1.13l.43-.32 1.06-.78a1 1 0 01.58-.23.87.87 0 01.62.31c.36.37.66.69 1 1 .68.76 1.33 1.56 1.95 2.37l.11-.07c5.92-3.72 11.14-7 15.94-10.06l.13-.07-.07-.14-.3-.73-.31-.77c-.17-.43-.35-.85-.52-1.28s-.26-.72-.38-1.07-.15-.45-.23-.67a.85.85 0 01.36-1l.07-.05.19-.12.29-.18 1.19-.71a1 1 0 01.5-.16.76.76 0 01.7.51l.29.61c.26.55.51 1.1.77 1.64l.24.49c.25.53.52 1.1.8 1.62s.67 1.26 1 1.89l1.12 2.07c.61 1.17 1.32 2.39 2.23 3.85s1.79 2.79 2.66 4c.46.67 1 1.35 1.4 1.91l.14.18c.22.28.44.57.65.86a1.32 1.32 0 01.12.2l.24.46-.4.35a1.61 1.61 0 01-.24.18l-1.95 1a1 1 0 01-.5.14.94.94 0 01-.68-.36c-.85-1-1.61-2-2.32-3l-.69-.94h-.06l-.14.08q-8.13 4.54-16.29 9.08l-.14.08v.09c.38.83.74 1.69 1 2.39l.24.57c.07.16.13.31.19.47l.09.26a.77.77 0 00.07.16.78.78 0 01-.38 1c-.65.34-1.3.68-2 1a.82.82 0 01-.37.1.77.77 0 01-.7-.49c-.09-.19-.17-.4-.26-.6l-.4-.91c-.12-.3-.25-.59-.39-.88-.22-.44-.44-.87-.67-1.3l-.11-.23c-.13-.24-.26-.49-.38-.74-1-1.93-2.15-3.81-3.28-5.63l-.05-.09c-.42-.67-.9-1.36-1.32-2l-.52-.76c-.43-.63-.85-1.25-1.3-1.86-.24-.35-.49-.68-.75-1l-.39-.53zM158.44 229.43l-32.65 32.64a96.65 96.65 0 0040.41 23.35l12-44.59a50.52 50.52 0 01-19.76-11.4zM171 254.7c-.52 1.19-1 2.38-1.54 3.57l-2.6 6c-.54 1.26-1.09 2.52-1.64 3.78q-.92 2.15-1.85 4.28a4.56 4.56 0 00-.34 1 2.65 2.65 0 00-.05.54.53.53 0 00.43.58l.78.24-1.19 2.97h-.36a3.55 3.55 0 01-3.21-3 5.1 5.1 0 010-1.41c0-.15 0-.3.07-.45a9.44 9.44 0 01-1.21.78 5.46 5.46 0 01-1.64.6 3.39 3.39 0 01-1.49 0 2.78 2.78 0 01-1.87-1.52 4 4 0 01-.41-1.46 6.3 6.3 0 010-1.37 7.42 7.42 0 01-2.32 1 4.39 4.39 0 01-.68.11 2.36 2.36 0 01-.37 0 2.77 2.77 0 01-2.65-1.76 4 4 0 010-3.22c.33-.84.71-1.68 1.12-2.5.73-1.41 1.52-2.86 2.42-4.42 1-1.75 2.08-3.67 3.34-6 .32-.6.67-1.18 1-1.78l.27-.47a14.64 14.64 0 001.23-2.49 7.11 7.11 0 00.26-.88 2.5 2.5 0 00-.87-2.7 5 5 0 00-1.17-.69h-.08l-.2-.09a1.54 1.54 0 01-.36-.16l-.09-.05-.15.24-.19.31-.38.6-.32.52a.74.74 0 01-.51.43h-.23a.79.79 0 01-.5-.66V245c-.34-1.55-.69-3.18-1.06-5a.68.68 0 01.16-.55.87.87 0 01.64-.36c1.5-.44 3.12-.92 4.72-1.41h.07l.26-.07a.68.68 0 01.53.11.57.57 0 01.12.8L156 240l.1.05c.69.39 1.27.74 1.76 1.08a6.58 6.58 0 012 2.05 5.32 5.32 0 01.69 3.27 10.19 10.19 0 01-.82 3.12 23.74 23.74 0 01-1.33 2.7c-.74 1.28-1.42 2.61-1.94 3.63s-.94 1.83-1.41 2.72v.06c-.22.43-.45.86-.68 1.29l-3.63 6.92a7.83 7.83 0 003-1.71 12.94 12.94 0 002.19-2.7c.76-1.22 1.45-2.53 2-3.64l2-4c.65-1.28 1.31-2.56 2-3.84a6.25 6.25 0 01.3-.55l.1-.19c.07-.12.15-.25.24-.43a.88.88 0 01.74-.55.68.68 0 01.36.11c.66.36 1.3.72 1.94 1.09a.71.71 0 01.31 1.07c-.46.94-.91 1.89-1.38 2.83l-1.81 3.7-1.86 3.8c-1.32 2.72-2.63 5.44-4 8.22a6.47 6.47 0 001.51-.73 9.91 9.91 0 002.6-2.51 19.38 19.38 0 001.76-3c1.34-2.74 2.64-5.57 3.89-8.3l.29-.63c.25-.56.51-1.12.77-1.68l.23-.5a1.79 1.79 0 01.12-.24.66.66 0 01.59-.4.88.88 0 01.28.06l.28.14c.57.32 1.16.64 1.73 1a.93.93 0 01.18.13l.31.28-.2.53c-.06.16-.12.31-.21.45zM289.16 192.76a96.54 96.54 0 00-2.86-23.34l-44.62 12a50.13 50.13 0 010 22.77l44.62 12a96.66 96.66 0 002.86-23.43zM272 204.33a6 6 0 01-4.4 2.45h-.74a7.64 7.64 0 01-4.77-1.72 13.33 13.33 0 01-4.42-6.14 15.89 15.89 0 01-1-7 17.65 17.65 0 01.81-3.79 28.1 28.1 0 012.18-5c.16-.32.33-.63.51-.95l.69-1.3a1.33 1.33 0 011.28-.78h1.75a.81.81 0 01.79 1.22c-.2.36-.38.73-.58 1.09l-.58 1.1a31.42 31.42 0 00-2.24 5.26 16 16 0 00-.81 4.3 11.19 11.19 0 00.81 4.55 6.56 6.56 0 015.78-2.19 6.28 6.28 0 015.76 4.54 5.24 5.24 0 01-.82 4.36zm8.84-4.76a31.55 31.55 0 01-2 5.48c-.25.53-.51 1.06-.76 1.58l-.6 1.23a1.1 1.1 0 01-1 .68h-.22c-.48-.07-1-.12-1.46-.17l-1-.11-.14-.42a1.11 1.11 0 01.16-1v-.06c.47-.92 1.08-2.16 1.65-3.5a29.82 29.82 0 001.8-5.49 20.23 20.23 0 00.54-4.88 16.52 16.52 0 00-.82-4.48 6.49 6.49 0 01-3.86 2.49 7.79 7.79 0 01-1.58.17 6.27 6.27 0 01-6.12-4.29 5.94 5.94 0 01.57-4.8 7.18 7.18 0 014.75-3.34 6.07 6.07 0 015.61 1.4 14.16 14.16 0 013.11 4.07 19.69 19.69 0 011.61 4.59 21.94 21.94 0 01.57 5.53 23.67 23.67 0 01-.81 5.32z" class="cls-1"/><path d="M266.32 198.57h-.09a3.22 3.22 0 00-2.1.72 2.1 2.1 0 00-.8 1.64 3 3 0 003 2.64h.2a2.55 2.55 0 002.76-2.36 2.88 2.88 0 00-2.97-2.64zM272 182h-.2a3.14 3.14 0 00-3 3 2.68 2.68 0 002.83 2.57h.08a3 3 0 003-2.94 2.51 2.51 0 00-.72-1.81A2.73 2.73 0 00272 182zM169.42 99.21l12 44.62a50.31 50.31 0 0122.77 0l12-44.62a97.24 97.24 0 00-46.77 0zm23.53 17c.15-.7.29-1.4.44-2.1a19.54 19.54 0 011.2-3.78 10.14 10.14 0 011.9-3 7.52 7.52 0 014.41-2.5 5.34 5.34 0 01.81 0 7.34 7.34 0 011.16.08 5.94 5.94 0 014.6 4.06 9.2 9.2 0 01.16 5.79c-.2.62-.43 1.26-.72 2a1 1 0 01-.92.66h-2.06a.75.75 0 01-.67-.31.73.73 0 01-.07-.69 16.5 16.5 0 00.6-2.32 11.43 11.43 0 00.19-2 3.22 3.22 0 00-.57-1.8 2.1 2.1 0 00-2.62-.85 3.66 3.66 0 00-1.36 1 7.05 7.05 0 00-1.13 1.75 16.63 16.63 0 00-1.25 3.75c-.42 1.83-.9 3.9-1.24 5.9-.25 1.43-.41 2.87-.53 4.07-.14 1.45-.24 2.93-.33 4.35l-.1 1.38c0 .44 0 .87-.07 1.31v1.06a.77.77 0 01-.82.8h-2.23a.79.79 0 01-.83-.77v-.39c0-.6-.08-1.2-.11-1.8v-.22c-.08-1.45-.16-2.76-.27-4.07a57.27 57.27 0 00-1.32-8.83c-.1-.43-.19-.87-.29-1.31v-.05c-.18-.85-.36-1.69-.59-2.48a16.56 16.56 0 00-.93-2.59 7 7 0 00-1.17-1.85 3.35 3.35 0 00-1.73-1.07 1.92 1.92 0 00-2 .55 3.19 3.19 0 00-.89 2.19 11.17 11.17 0 00.38 2.9c.09.37.19.73.3 1.1l.2.7-.07.18a.72.72 0 01-.68.47h-2.08a1 1 0 01-.94-.62 14.44 14.44 0 01-1-3.18 12.11 12.11 0 010-2.69 7.43 7.43 0 01.41-1.83 6.07 6.07 0 014.55-4.13 4.52 4.52 0 011-.11 7.9 7.9 0 011 .07 6.36 6.36 0 012.82 1.12 9.26 9.26 0 013.33 4 15.82 15.82 0 011.1 3.19c.31 1.31.6 2.63.89 3.94v.18c0-.2.09-.41.13-.62zM221.32 130.93a6.07 6.07 0 105.22-3h-.2a5.94 5.94 0 00-5.02 3zM224.3 109.73z" class="cls-1"/><path d="M207.36 144.69a50.37 50.37 0 0119.71 11.39l32.65-32.64a96.65 96.65 0 00-40.41-23.35zm15-32.62c.06-.14.09-.22.13-.3.33-.57.66-1.14 1-1.7a.9.9 0 01.76-.54 1.09 1.09 0 01.5.14 8.77 8.77 0 01.82.42 7.3 7.3 0 011.53 1.23 5.71 5.71 0 011.35 2.74 10 10 0 01.2 2.22c0 .72 0 1.42-.12 2.19l-.05.7c0 .37-.07.74-.08 1.11a6.34 6.34 0 00.35 2.43 5.6 5.6 0 00.47 1 1.16 1.16 0 00.7.6 9.18 9.18 0 013.54 2.14.38.38 0 00.24.1 5.58 5.58 0 002.45-.28 8.17 8.17 0 001.94-1l.52-.35c.5-.34 1-.68 1.51-1a12.93 12.93 0 011.74-1 7.58 7.58 0 012-.63 5.42 5.42 0 013.18.39 8.3 8.3 0 011.14.59 3.92 3.92 0 01.72.55l.4.38-1.72 2.93h-.39a1.15 1.15 0 01-.76-.31h-.05a3.93 3.93 0 00-1.12-.53 2.14 2.14 0 00-1.46.08 6.13 6.13 0 00-1.23.68c-.29.2-.56.42-.84.63a14.29 14.29 0 01-4.38 2.27 7.42 7.42 0 01-1.13.29h-.19a9.88 9.88 0 01-.06 7.35 10 10 0 01-9.06 6.38h-.33a10.38 10.38 0 01-2-.2 10.08 10.08 0 01-6.77-4.85 10.21 10.21 0 01-.85-8.3 10 10 0 018.17-6.8 10.44 10.44 0 01-.46-1.87 14.65 14.65 0 010-4.53 11.72 11.72 0 00.14-1.67 2.66 2.66 0 00-1.6-2.52h-.08a1.63 1.63 0 01-.64-.44l-.26-.31zM156.08 227.07a50.37 50.37 0 01-11.39-19.71l-44.6 11.95a96.65 96.65 0 0023.35 40.41zm-35.79 9.17l-1.76 1a1.12 1.12 0 01-.55.18.88.88 0 01-.76-.54l-.3-.54-.22-.4-.38-.67-.78-1.37-.12-.2c-.57-1-1.13-2-1.67-2.92-.68-1.24-1.42-2.48-2.13-3.67l-.62-1-.33-.58a.77.77 0 01.3-1.08l.46-.29 1.13-.67 9.09-5.39.15-.09a2.92 2.92 0 01.85-.4l.23-.06.21.12a1.68 1.68 0 01.66.78.89.89 0 00.11.2c.25.4.49.81.7 1.2a.8.8 0 01-.32 1.23l-1.31.78-4.9 2.91 3.49.87 7.62 1.9 1.41.35 1.79-6.87.37-.07a1.56 1.56 0 01.25 0h.12l2.24.57a.78.78 0 01.61 1.06l-1 3.74-.65 2.53h.06l4.27 1.06 5.25 1.32.26.06a1.06 1.06 0 01.77.43 1 1 0 010 .87l-.06.26c-.05.25-.12.5-.18.75v.16c-.05.18-.1.36-.14.54s-.21.85-.81.85a1.47 1.47 0 01-.34-.05l-1.72-.43-5.59-1.4-1.93-.48-.79-.19c-.16.61-.32 1.21-.47 1.8l-1 4a1.09 1.09 0 01-.07.24l-.11.34-.14.11a.79.79 0 01-.51.18 1.3 1.3 0 01-.27 0h-.16l-1.94-.5a.76.76 0 01-.6-1c.16-.64.32-1.28.49-1.91l1-4-5.55-1.62-7.15-1.79.89 1.56c.44.76.87 1.51 1.29 2.26s.87 1.54 1.3 2.32l.25.43a.8.8 0 01-.29 1.22zM169.42 286.3a97.24 97.24 0 0046.68 0l-12-44.62a50.31 50.31 0 01-22.77 0zm36.1-22.36v.21c.14.73.28 1.47.41 2.2a.66.66 0 01-.09.58.6.6 0 01-.51.19h-5.47a10.54 10.54 0 011.35 1.55 8.87 8.87 0 011.39 3.65 6.06 6.06 0 01-.85 4.16 8.25 8.25 0 01-3.75 3 13.89 13.89 0 01-5.52 1.11c-.51 0-1 0-1.56-.08a12.92 12.92 0 01-4.58-1.28 7.55 7.55 0 01-3.09-2.8 5.88 5.88 0 01-.65-4.3A9.29 9.29 0 01184 269a10.49 10.49 0 011.39-1.61h-4.98l-.06-.19v.19h-.23a.65.65 0 01-.55-.2.72.72 0 01-.06-.64v-.08l.49-2.44c.05-.49.16-.8.62-.57s.73 0 1.09 0l7.38-.1H189.75l.16.21a1.23 1.23 0 01.07.61v.08c0 .47 0 .93-.06 1.4v.44l-.06 1.31a.88.88 0 01-.48.8 5.36 5.36 0 00-.93.64 5.28 5.28 0 00-1.35 1.59 3.77 3.77 0 00-.26 3.58 4.2 4.2 0 001.81 1.86 7.33 7.33 0 003.19.92 8.51 8.51 0 003.88-.6 5.32 5.32 0 002.06-1.45 3.6 3.6 0 00.9-2.52 4.12 4.12 0 00-.92-2.43 5.88 5.88 0 00-1.65-1.44 2.69 2.69 0 00-.29-.16l-.4-.23v-.19c-.08-.68-.2-3.79-.15-4.23v-.33h1.46l7.69-.06h.28c.68.01.74.37.82.78zm-23.67-7.15h.26l4.09-.07H188.6c.47-.06 1.56-.09 4.71-.09h10.2c.59 0 .65.39.72.8l.39 2.18c.07.39.1.6-.06.8a.63.63 0 01-.52.18h-5.85l-3.16.05h-3.66l-3.5.05H181.31a.6.6 0 01-.43-.2.64.64 0 01-.09-.51l.39-2c0-.19.07-.38.11-.57v-.15a.58.58 0 01.56-.47zM185.73 266.98v-.01.01zM225 262.75a5.44 5.44 0 00-.36-1.1c-.51-.91-1-1.82-1.51-2.74l-.68-1.24c-.32-.56-.63-1.13-.95-1.7l-.06-.11-.87-1.57a7.32 7.32 0 00-.12 2.26 15.19 15.19 0 003 8.24 6 6 0 00.75.87 1.71 1.71 0 00.44.3c.11 0 .16.09.31-.08a1.17 1.17 0 00.23-.46 4 4 0 00.1-1.1 3.13 3.13 0 00-.11-.91c-.06-.18-.1-.41-.17-.66z" class="cls-1"/><path d="M227.07 229.43a50.52 50.52 0 01-19.71 11.4l11.95 44.59a96.65 96.65 0 0040.41-23.35zM246.88 265a3.39 3.39 0 01-2.35 0 4.67 4.67 0 01-1.35-.79l-.34-.28a10.81 10.81 0 010 1.26 6.16 6.16 0 01-.33 1.85 3.42 3.42 0 01-.85 1.34 2.82 2.82 0 01-2 .79h-.06a3.75 3.75 0 01-1.42-.33 5.61 5.61 0 01-1.32-.83 7.26 7.26 0 01-.44 2.78 3.55 3.55 0 01-.59 1.09 2.6 2.6 0 01-2.1 1h-.05a3.91 3.91 0 01-2.64-1 6.17 6.17 0 01-.85-1 22.51 22.51 0 01-1.71-2.88l-.13-.27a3.92 3.92 0 01-.32 1.17 2.75 2.75 0 01-1.63 1.59 4.52 4.52 0 01-.94.1 4 4 0 01-1.36-.22 6 6 0 01-1.81-1.19 14.4 14.4 0 01-3.38-4.77 23.33 23.33 0 01-1.88-7.47 21.49 21.49 0 010-2.88 13.53 13.53 0 01.94-3.58v-.1a2 2 0 00-1.5-1 1.72 1.72 0 00-.74.09.85.85 0 01-.23 0 .73.73 0 01-.64-.41l-1.07-2.06a.67.67 0 01-.06-.55.66.66 0 01.37-.38 4.86 4.86 0 014.91.64 4 4 0 01.61.54 3.65 3.65 0 013.29-2.48.91.91 0 011 .5c.28.46.57.92.85 1.39l.45.72-.06.17a.71.71 0 01-.61.52h-.17l-.67.18a2 2 0 00-.6.31 1.31 1.31 0 00-.36 1.68 4.85 4.85 0 00.52 1.08c.56.81 1.06 1.66 1.54 2.48l.06.12.48.82 3.21 5.43 2.59 4.4 1.13 1.9 1.12 1.88a6.93 6.93 0 00.05-2.8 11.5 11.5 0 00-.94-2.86c-.55-1.21-1.25-2.42-1.86-3.49l-.24-.41c-1-1.71-2-3.4-3-5.12l-1.24-2.07c-.29-.48-.57-1-.85-1.45l-.33-.57a.71.71 0 01.21-1.06l1.94-1.27.1-.07a.7.7 0 011 .24l1 1.54 10.09 15.81c0-.12.05-.25.07-.37a7.5 7.5 0 00-.36-3.6 16.47 16.47 0 00-1.49-3.05c-1.25-2.07-2.61-4.12-3.94-6.1l-.47-.71-1.89-2.8-.92-1.37-.23-.35a.73.73 0 01.21-1.11l2-1.23a.77.77 0 01.44-.15.8.8 0 01.64.41l.24.34.09.13 10.83 15.41a4.76 4.76 0 00.77.92 3.36 3.36 0 00.43.31.49.49 0 00.62 0 1 1 0 01.52-.29h.28l.19.07a.64.64 0 01.15.14l.05.07 1 1.43a.73.73 0 01-.13 1.11 4 4 0 01-1.54 1.02zM258.92 219.4a3.14 3.14 0 10-3.05 5.49 3.22 3.22 0 001.55.4 3.05 3.05 0 002.71-1.62 3.12 3.12 0 00-1.21-4.27z" class="cls-1"/><path d="M285.42 219.31l-44.59-11.95a50.52 50.52 0 01-11.4 19.71l32.64 32.65a96.65 96.65 0 0023.35-40.41zm-26.94 22.84a21.19 21.19 0 01-3.83-3.52 42.73 42.73 0 01-3.57-4.55 35.49 35.49 0 00-2.16-3 8.46 8.46 0 00-1.92-1.8 2.89 2.89 0 00-2.68-.42 2.19 2.19 0 00-1.42 1.35 5.28 5.28 0 00-.34 1.75v1.87a1 1 0 01-.26.87l-.33.35-.44-.19-.28-.12-.7-.38-1.42-.78a1.25 1.25 0 01-.72-1.18v-.12a2.09 2.09 0 010-.25 17.47 17.47 0 01.26-2.47 6.32 6.32 0 012.8-4.26 6.76 6.76 0 015.81-.76 8.85 8.85 0 013.69 2.38 25.6 25.6 0 012.78 3.47l.69 1c.55.78 1.11 1.6 1.7 2.35a25 25 0 003.65 3.86 11.22 11.22 0 002.35 1.49 4.53 4.53 0 001.49.41 3.08 3.08 0 002.18-.56 4.63 4.63 0 001.86-2.42 3.74 3.74 0 00-.92-3.7 6.31 6.31 0 00-1.4-1.14 13.91 13.91 0 00-4.32-1.65c-.56-.13-1.13-.24-1.69-.34h-.1l-.87-.17a15.8 15.8 0 01-2.57-.69 2.57 2.57 0 01-.84-.45l-.14-.06-.2-.09a6.5 6.5 0 01-3.77-5.58 6.58 6.58 0 011.73-5 6.81 6.81 0 015-2.14 6.67 6.67 0 012 .31 6.68 6.68 0 014.26 8.61 6.57 6.57 0 01-1.06 1.92 19 19 0 013.94 1.21 10 10 0 013.85 2.76 6.52 6.52 0 011.24 2.32 9.07 9.07 0 01-.09 5.74 7.9 7.9 0 01-4.54 4.8 8.9 8.9 0 01-3.38.7 8.55 8.55 0 01-2.49-.38 10.24 10.24 0 01-2.83-1.35zM115.33 162.7zM190.34 61.25h4.83v26.63h-4.83z" class="cls-1"/></svg>